<svg width="22" height="22" viewBox="0 0 22 22" fill="none" xmlns="http://www.w3.org/2000/svg">
<path d="M11 8.25C9.5095 8.25 8.25 9.5095 8.25 11C8.25 12.4905 9.5095 13.75 11 13.75C12.4905 13.75 13.75 12.4905 13.75 11C13.75 9.5095 12.4905 8.25 11 8.25Z" fill="#C4C4C4"/>
<path d="M18.5 4.58334H16.1295L13.6481 2.10193C13.5631 2.01664 13.4621 1.949 13.3509 1.90291C13.2396 1.85681 13.1204 1.83317 13 1.83334H9.33333C9.21294 1.83317 9.09369 1.85681 8.98247 1.90291C8.87124 1.949 8.77023 2.01664 8.68525 2.10193L6.20383 4.58334H3.83333C2.82225 4.58334 2 5.40559 2 6.41668V16.5C2 17.5111 2.82225 18.3333 3.83333 18.3333H18.5C19.5111 18.3333 20.3333 17.5111 20.3333 16.5V6.41668C20.3333 5.40559 19.5111 4.58334 18.5 4.58334ZM11.1667 15.5833C8.6825 15.5833 6.58333 13.4842 6.58333 11C6.58333 8.51584 8.6825 6.41668 11.1667 6.41668C13.6508 6.41668 15.75 8.51584 15.75 11C15.75 13.4842 13.6508 15.5833 11.1667 15.5833Z" fill="#C4C4C4"/>
</svg>
