<svg width="20" height="20" viewBox="0 0 20 20" fill="none" xmlns="http://www.w3.org/2000/svg">
<circle cx="10" cy="10" r="10" fill="#FF6969"/>
<path d="M6.04042 9.62624C5.6499 9.23571 5.01673 9.23571 4.62621 9.62624C4.23568 10.0168 4.23568 10.6499 4.62621 11.0405L6.04042 9.62624ZM8.33331 13.3333L7.62621 14.0405L8.33331 14.7476L9.04042 14.0405L8.33331 13.3333ZM15.0404 8.04045C15.4309 7.64993 15.4309 7.01676 15.0404 6.62624C14.6499 6.23571 14.0167 6.23571 13.6262 6.62624L15.0404 8.04045ZM4.62621 11.0405L7.62621 14.0405L9.04042 12.6262L6.04042 9.62624L4.62621 11.0405ZM9.04042 14.0405L15.0404 8.04045L13.6262 6.62624L7.62621 12.6262L9.04042 14.0405Z" fill="white"/>
</svg>
