<svg width="42" height="54" viewBox="0 0 42 54" fill="none" xmlns="http://www.w3.org/2000/svg">
<g clip-path="url(#clip0_161_2205)">
<path d="M41.3663 33.0698C41.3663 21.6226 29.7686 8.91311 23.9423 1.56995C23.5544 1.08138 23.0596 0.686433 22.4953 0.414866C21.931 0.143298 21.3118 0.00219727 20.6845 0.00219727C20.0571 0.00219727 19.4379 0.143298 18.8736 0.414866C18.3093 0.686433 17.8146 1.08138 17.4267 1.56995C11.5969 8.91311 0.00343323 21.7076 0.00343323 33.0698C0.00343323 44.3886 9.26244 53.5642 20.6862 53.5642C32.1099 53.5642 41.3663 44.3886 41.3663 33.0698Z" fill="#FF4651"/>
<path d="M30.7433 33.8198C30.7433 33.8198 29.3716 35.3167 25.0705 35.0092C20.7693 34.7016 19.7448 31.956 19.113 30.7157C18.4494 29.4134 15.9504 27.3067 12.7689 28.479C10.9188 29.1586 9.44504 30.3521 9.02753 32.8191C8.86121 33.7978 8.97009 35.0848 9.39018 36.4295C10.1069 38.7334 12.9257 44.059 20.1418 44.7386C27.0586 45.3919 30.9885 39.0834 31.5201 37.889C32.0516 36.6946 32.8172 34.6328 31.9101 33.9201C31.2843 33.4257 30.7433 33.8198 30.7433 33.8198Z" fill="white"/>
</g>
<defs>
<clipPath id="clip0_161_2205">
<rect width="41.3663" height="53.5641" fill="white"/>
</clipPath>
</defs>
</svg>
