<svg width="30" height="29" viewBox="0 0 30 29" fill="none" xmlns="http://www.w3.org/2000/svg">
<path fill-rule="evenodd" clip-rule="evenodd" d="M2 6.77084C2 4.95928 3.46856 3.49072 5.28012 3.49072H16.7167L15.5239 5.27988H5.28012C4.45668 5.27988 3.78916 5.94741 3.78916 6.77084V23.4696C3.78916 24.2931 4.45668 24.9606 5.28012 24.9606H21.9789C22.8024 24.9606 23.4699 24.2931 23.4699 23.4696V13.2258L25.259 12.0331V23.4696C25.259 25.2812 23.7905 26.7498 21.9789 26.7498H5.28012C3.46856 26.7498 2 25.2812 2 23.4696V6.77084Z" fill="#767676"/>
<path fill-rule="evenodd" clip-rule="evenodd" d="M25.3773 7.0605L27.0641 5.37367L23.6904 2L22.0036 3.68683L25.3773 7.0605ZM21.1602 4.53027L24.5338 7.90394L14.4128 18.0249L11.0392 14.6513L21.1602 4.53027ZM10.0312 19.4854C9.75144 19.5787 9.48531 19.3125 9.57855 19.0328L11.0391 14.6512L14.4127 18.0249L10.0312 19.4854Z" fill="#767676"/>
</svg>
