<svg width="28" height="28" viewBox="0 0 28 28" fill="none" xmlns="http://www.w3.org/2000/svg">
<path fill-rule="evenodd" clip-rule="evenodd" d="M22.75 15.575C22.925 16.625 23.1 17.5 23.45 18.55L24.5 21.525L23.625 22.75H17.5C17.5 23.625 17.15 24.5 16.45 25.2C15.75 25.9 14.875 26.25 14 26.25C13.125 26.25 12.075 25.9 11.55 25.2C10.85 24.5 10.5 23.625 10.5 22.75H4.375L3.5 21.525L4.55 18.55C4.9 17.15 5.25 15.75 5.25 14.35V10.5C5.25 9.275 5.425 8.05 5.95 7C6.475 5.775 7.175 4.9 8.05 4.025C8.925 3.15 9.975 2.625 11.2 2.275C12.075 1.925 13.125 1.75 14 1.75C13.65 2.275 13.3 2.975 12.95 3.675C12.6 3.675 12.25 3.675 11.725 4.025C10.85 4.2 9.975 4.725 9.275 5.425C8.575 5.95 7.875 6.825 7.525 7.7C7.175 8.575 7 9.45 7 10.5V14.35C7 15.925 6.65 17.5 6.3 19.075L5.6 21H22.4L21.7 19.075C21.3937 18.1545 21.2205 17.0975 21.0647 16.1455L21 15.75C21.7 15.75 22.225 15.75 22.75 15.575ZM14 24.5C14.35 24.5 14.875 24.325 15.225 23.975C15.575 23.625 15.75 23.275 15.75 22.75H12.25C12.25 23.275 12.425 23.625 12.775 23.975C13.125 24.325 13.65 24.5 14 24.5ZM26.25 7C26.25 8.39239 25.6969 9.72774 24.7123 10.7123C23.7277 11.6969 22.3924 12.25 21 12.25C19.6076 12.25 18.2723 11.6969 17.2877 10.7123C16.3031 9.72774 15.75 8.39239 15.75 7C15.75 5.60761 16.3031 4.27226 17.2877 3.28769C18.2723 2.30312 19.6076 1.75 21 1.75C22.3924 1.75 23.7277 2.30312 24.7123 3.28769C25.6969 4.27226 26.25 5.60761 26.25 7Z" fill="#F4F4F4"/>
</svg>
