<svg width="28" height="28" viewBox="0 0 28 28" fill="none" xmlns="http://www.w3.org/2000/svg">
<path d="M4.66671 21H7.00004V25.7612L12.9512 21H18.6667C19.9535 21 21 19.9535 21 18.6667V9.33333C21 8.0465 19.9535 7 18.6667 7H4.66671C3.37987 7 2.33337 8.0465 2.33337 9.33333V18.6667C2.33337 19.9535 3.37987 21 4.66671 21Z" fill="#F4F4F4"/>
<path d="M23.3333 2.3335H9.33333C8.0465 2.3335 7 3.38 7 4.66683H21C22.2868 4.66683 23.3333 5.71333 23.3333 7.00016V16.3335C24.6202 16.3335 25.6667 15.287 25.6667 14.0002V4.66683C25.6667 3.38 24.6202 2.3335 23.3333 2.3335Z" fill="#F4F4F4"/>
</svg>
