<svg width="28" height="28" viewBox="0 0 28 28" fill="none" xmlns="http://www.w3.org/2000/svg">
<path d="M12.3083 2.95519C12.7817 2.55622 13.3809 2.3374 14 2.3374C14.6191 2.3374 15.2183 2.55622 15.6917 2.95519L23.5667 9.59936C24.1593 10.0975 24.5 10.8314 24.5 11.606V23.0417C24.5 23.5832 24.2849 24.1025 23.902 24.4854C23.5191 24.8683 22.9998 25.0834 22.4583 25.0834H18.9583C18.4168 25.0834 17.8975 24.8683 17.5147 24.4854C17.1318 24.1025 16.9167 23.5832 16.9167 23.0417V17.2084C16.9167 16.9763 16.8245 16.7537 16.6604 16.5896C16.4963 16.4255 16.2737 16.3334 16.0417 16.3334H11.9583C11.7263 16.3334 11.5037 16.4255 11.3396 16.5896C11.1755 16.7537 11.0833 16.9763 11.0833 17.2084V23.0417C11.0833 23.5832 10.8682 24.1025 10.4853 24.4854C10.1025 24.8683 9.58315 25.0834 9.04167 25.0834H5.54167C5.27355 25.0834 5.00806 25.0306 4.76035 24.9279C4.51265 24.8253 4.28758 24.675 4.09799 24.4854C3.9084 24.2958 3.75802 24.0707 3.65541 23.823C3.55281 23.5753 3.5 23.3098 3.5 23.0417V11.6049C3.5 10.8314 3.84067 10.0975 4.43333 9.59819L12.3083 2.95519Z" fill="#F4F4F4"/>
</svg>
