<svg width="114" height="48" viewBox="0 0 114 48" fill="none" xmlns="http://www.w3.org/2000/svg">
<path d="M70.8277 39.903C70.8277 41.8373 72.3241 42.6767 74.1488 42.6767C75.9736 42.6767 77.4699 41.8373 77.4699 39.903V10.5973C77.4699 8.99148 75.9371 8.0791 74.1488 8.0791C72.3606 8.0791 70.8277 8.99148 70.8277 10.5973V39.903ZM50.8283 28.188H49.8794C48.5656 28.188 47.7627 29.5384 47.7627 30.9617C47.7627 32.4945 48.5656 33.8448 49.8794 33.8448H58.7843C62.2513 33.8448 66.2658 33.4434 68.0176 32.8594C69.076 32.531 69.5504 31.6551 69.5504 30.4142C69.5504 28.699 68.638 27.6406 67.2512 27.6406C66.9227 27.6406 66.2293 27.7501 65.9739 27.8231V19.7941C65.9739 18.1883 64.3681 17.5679 62.7988 17.5679C61.193 17.5679 59.5507 18.1883 59.5507 19.7941V28.188H57.215V19.7576C57.215 18.1883 55.6092 17.5314 54.0399 17.5314C52.4341 17.5314 50.8283 18.1883 50.8283 19.7576V28.188ZM66.7403 16.2906C68.2001 16.2906 68.8205 14.8307 68.8205 13.4439C68.8205 12.0571 68.2001 10.6338 66.7403 10.6338H50.2079C48.7481 10.6338 48.0912 12.0571 48.0912 13.4439C48.0912 14.8307 48.7481 16.2906 50.2079 16.2906H66.7403Z" fill="white"/>
<path d="M111.317 27.8231C112.704 27.8231 113.288 26.5457 113.288 25.3049C113.288 24.1371 112.704 22.7867 111.317 22.7867H82.9964C81.6096 22.7867 81.0256 24.1371 81.0256 25.3049C81.0256 26.5457 81.6096 27.8231 82.9964 27.8231H111.317ZM88.9086 13.6629V16.5095H86.7919C85.3321 16.5095 84.6387 17.8234 84.6387 19.1737C84.6387 20.4875 85.2226 21.6919 86.7919 21.6919H107.521C109.054 21.6919 109.674 20.4875 109.674 19.1737C109.674 17.8599 108.945 16.5095 107.521 16.5095H105.368V13.6629H107.813C109.383 13.6629 109.966 12.2761 109.966 10.9622C109.966 9.61191 109.273 8.33457 107.813 8.33457H86.4269C85.0401 8.33457 84.3467 9.57541 84.3467 10.9622C84.3467 12.2761 84.9306 13.6629 86.4269 13.6629H88.9086ZM98.9813 13.6629V16.5095H95.2223V13.6629H98.9813ZM93.2881 39.3921C92.5582 39.3921 92.3392 39.2461 92.3392 38.9907V38.8082C92.3392 38.4797 92.5582 38.2972 93.3246 38.2972H105.259C108.434 38.2972 108.799 37.5673 108.799 35.2681V31.9106C108.799 29.6843 108.251 28.9909 105.259 28.9909H87.2298C85.843 28.9909 85.1861 30.0493 85.1861 31.2536C85.1861 32.5675 85.843 33.5163 87.2298 33.5163H100.879C101.682 33.5163 101.791 33.5893 101.791 33.8813V34.0273C101.791 34.3922 101.645 34.5747 100.879 34.5747H88.4707C85.8065 34.5747 85.3321 35.2316 85.3321 37.3484V40.6329C85.3321 43.2971 86.062 43.9175 89.2736 43.9175H108.105C109.492 43.9175 110.149 42.8592 110.149 41.6548C110.149 40.3775 109.492 39.3921 108.105 39.3921H93.2881Z" fill="white"/>
<rect x="50.8286" y="14.2842" width="15.1821" height="16.7879" fill="white"/>
<g clip-path="url(#clip0_176_2967)">
<path d="M62.2458 23.0486C62.2458 20.7711 59.9948 18.2426 58.8639 16.7816C58.7886 16.6844 58.6926 16.6059 58.5831 16.5518C58.4735 16.4978 58.3534 16.4697 58.2316 16.4697C58.1098 16.4697 57.9897 16.4978 57.8801 16.5518C57.7706 16.6059 57.6746 16.6844 57.5993 16.7816C56.4678 18.2426 54.2175 20.788 54.2175 23.0486C54.2175 25.3004 56.0147 27.1259 58.2319 27.1259C60.4492 27.1259 62.2458 25.3004 62.2458 23.0486Z" fill="#FF6969"/>
</g>
<g clip-path="url(#clip1_176_2967)">
<path d="M37.0694 29.6345C37.0694 19.3765 26.6764 7.98722 21.4553 1.40685C21.1077 0.969036 20.6643 0.615112 20.1586 0.371755C19.6529 0.128397 19.0981 0.00195312 18.5359 0.00195312C17.9737 0.00195312 17.4189 0.128397 16.9132 0.371755C16.4075 0.615112 15.9641 0.969036 15.6165 1.40685C10.3924 7.98722 0.00317383 19.4526 0.00317383 29.6345C0.00317383 39.7776 8.30038 48 18.5374 48C28.7745 48 37.0694 39.7776 37.0694 29.6345Z" fill="white"/>
<path d="M27.5499 30.3071C27.5499 30.3071 26.3207 31.6484 22.4663 31.3728C18.612 31.0973 17.6939 28.6369 17.1277 27.5254C16.5331 26.3584 14.2936 24.4705 11.4426 25.521C9.78467 26.13 8.46403 27.1996 8.08988 29.4103C7.94084 30.2873 8.03841 31.4406 8.41486 32.6457C9.05712 34.7102 11.5832 39.4826 18.0496 40.0916C24.2479 40.677 27.7696 35.0239 28.246 33.9535C28.7223 32.8832 29.4083 31.0356 28.5955 30.3969C28.0347 29.9539 27.5499 30.3071 27.5499 30.3071Z" fill="#FF6969"/>
</g>
<defs>
<clipPath id="clip0_176_2967">
<rect width="8.02897" height="10.6566" fill="white" transform="translate(54.2168 16.4697)"/>
</clipPath>
<clipPath id="clip1_176_2967">
<rect width="37.0693" height="48" fill="white"/>
</clipPath>
</defs>
</svg>
