<svg width="28" height="28" viewBox="0 0 28 28" fill="none" xmlns="http://www.w3.org/2000/svg">
<path d="M25.118 23.8814L20.3906 19.1539C22.06 17.1657 22.8976 14.6098 22.7285 12.0191C22.5594 9.42847 21.3967 7.00309 19.4829 5.24878C17.5692 3.49446 15.0521 2.54663 12.4565 2.60296C9.86096 2.65929 7.38733 3.71541 5.55149 5.5511C3.71564 7.38679 2.65929 9.86032 2.60274 12.4559C2.54618 15.0514 3.49378 17.5686 5.24793 19.4825C7.00208 21.3964 9.42735 22.5593 12.018 22.7286C14.6086 22.898 17.1646 22.0607 19.153 20.3914L23.8805 25.1189C24.0446 25.283 24.2672 25.3752 24.4992 25.3752C24.7313 25.3752 24.9539 25.283 25.118 25.1189C25.2821 24.9548 25.3743 24.7322 25.3743 24.5002C25.3743 24.2681 25.2821 24.0455 25.118 23.8814ZM4.3749 12.6876C4.3749 11.0435 4.86242 9.43637 5.77581 8.06938C6.6892 6.7024 7.98743 5.63697 9.50634 5.00781C11.0253 4.37866 12.6966 4.21404 14.3091 4.53478C15.9216 4.85552 17.4027 5.64721 18.5652 6.80974C19.7277 7.97226 20.5194 9.45341 20.8402 11.0659C21.1609 12.6783 20.9963 14.3497 20.3671 15.8686C19.738 17.3875 18.6726 18.6858 17.3056 19.5992C15.9386 20.5125 14.3315 21.0001 12.6874 21.0001C10.4836 20.9976 8.37068 20.121 6.81232 18.5626C5.25397 17.0043 4.37739 14.8914 4.3749 12.6876Z" fill="#F4F4F4"/>
</svg>
